<?xml version="1.0" encoding="UTF-8" standalone="no"?>
<!-- Generator: Adobe Illustrator 17.1.0, SVG Export Plug-In . SVG Version: 6.00 Build 0)  -->

<svg
   xmlns:dc="http://purl.org/dc/elements/1.1/"
   xmlns:cc="http://creativecommons.org/ns#"
   xmlns:rdf="http://www.w3.org/1999/02/22-rdf-syntax-ns#"
   xmlns:svg="http://www.w3.org/2000/svg"
   xmlns="http://www.w3.org/2000/svg"
   xmlns:sodipodi="http://sodipodi.sourceforge.net/DTD/sodipodi-0.dtd"
   xmlns:inkscape="http://www.inkscape.org/namespaces/inkscape"
   version="1.1"
   id="Capa_1"
   x="0px"
   y="0px"
   viewBox="0 0 333.561 333.561"
   style="enable-background:new 0 0 333.561 333.561;"
   xml:space="preserve"
   inkscape:version="0.91 r13725"
   sodipodi:docname="logo.svg"
   inkscape:export-filename="C:\Users\DarkAngel\Dropbox\PacktPublishing\Graphics\Logo\__src\pac-man-ghost.png"
   inkscape:export-xdpi="10.750926"
   inkscape:export-ydpi="10.750926"><metadata
     id="metadata39"><rdf:RDF><cc:Work
         rdf:about=""><dc:format>image/svg+xml</dc:format><dc:type
           rdf:resource="http://purl.org/dc/dcmitype/StillImage" /><dc:title /></cc:Work></rdf:RDF></metadata><defs
     id="defs37" /><sodipodi:namedview
     pagecolor="#ffffff"
     bordercolor="#666666"
     borderopacity="1"
     objecttolerance="10"
     gridtolerance="10"
     guidetolerance="10"
     inkscape:pageopacity="0"
     inkscape:pageshadow="2"
     inkscape:window-width="1920"
     inkscape:window-height="1017"
     id="namedview35"
     showgrid="false"
     inkscape:zoom="1.4150335"
     inkscape:cx="10.882777"
     inkscape:cy="160.27348"
     inkscape:window-x="-8"
     inkscape:window-y="-8"
     inkscape:window-maximized="1"
     inkscape:current-layer="Capa_1" /><g
     id="g5" /><g
     id="g7" /><g
     id="g9" /><g
     id="g11" /><g
     id="g13" /><g
     id="g15" /><g
     id="g17" /><g
     id="g19" /><g
     id="g21" /><g
     id="g23" /><g
     id="g25" /><g
     id="g27" /><g
     id="g29" /><g
     id="g31" /><g
     id="g33" /><text
     xml:space="preserve"
     style="font-style:normal;font-weight:normal;font-size:123.06362152px;line-height:125%;font-family:Desyal;-inkscape-font-specification:Desyal;letter-spacing:0px;word-spacing:0px;fill:#000000;fill-opacity:1;stroke:none;stroke-width:1px;stroke-linecap:butt;stroke-linejoin:miter;stroke-opacity:1"
     x="-271.35501"
     y="131.66138"
     id="text3367"
     sodipodi:linespacing="125%"
     transform="scale(1.0733666,0.93164814)"><tspan
       sodipodi:role="line"
       x="-271.35501"
       y="131.66138"
       id="tspan3371" /></text>
<g
     inkscape:groupmode="layer"
     id="layer2"
     inkscape:label="Layer 2"
     style="display:inline"><path
       style="fill:#000000;fill-opacity:1;fill-rule:evenodd;stroke:#000000;stroke-width:1px;stroke-linecap:butt;stroke-linejoin:miter;stroke-opacity:1"
       d="m 6.6729078,27.475907 5.2898262,-4.320718 16.021041,-4.911366 23.309709,-3.321298 48.14886,-3.174936 53.968706,-0.49971 44.47422,2.998262 32.98088,4.997102 14.49159,4.497393 3.49798,3.997682 0.49971,22.486962 -2.49856,6.496234 -4.9971,5.496813 -8.99478,3.997682 -36.47885,9.494495 -44.47422,3.497972 -40.47653,0.999421 L 74.456831,77.209635 41.475953,71.712822 17.48986,64.716878 10.493916,58.720355 6.4962335,51.224701 Z"
       id="path4197"
       inkscape:connector-curvature="0"
       sodipodi:nodetypes="ccccccccccccccccccccccc" /><ellipse
       style="fill:#ffffff;fill-opacity:1;stroke:#000000;stroke-width:2;stroke-miterlimit:4;stroke-dasharray:none;stroke-opacity:1"
       id="path4199"
       ry="7.8620043"
       rx="43.903553"
       cy="30.829659"
       cx="127.47048" /><path
       style="fill:#000000;fill-opacity:1;fill-rule:evenodd;stroke:#000000;stroke-width:1px;stroke-linecap:butt;stroke-linejoin:miter;stroke-opacity:1"
       d="m 24.0277,80.740137 3.886833,-0.530023 4.94688,0.706697 6.890296,1.943417 19.08082,4.770205 20.494214,3.71016 16.077358,1.590068 19.610839,1.413394 28.44456,0 27.20784,-1.590068 22.08428,-2.826789 19.43417,-3.886833 13.25057,-3.180137 4.24018,0 4.24018,2.120091 3.88684,4.063508 1.59006,4.063508 0,3.356811 -1.41339,4.946884 -2.82679,3.53348 -2.65011,1.94342 -16.96073,4.41685 -22.08428,4.24019 -23.49768,2.47344 -20.14087,1.23672 -24.91107,0.17667 -22.79098,-0.53002 -23.144325,-2.65012 -23.144328,-4.0635 -22.260957,-4.94688 -11.483827,-3.35681 -3.533486,-2.65012 -2.650113,-6.006924 0.176674,-5.476902 1.943417,-4.063508 3.710159,-3.533485 z"
       id="path4201"
       inkscape:connector-curvature="0" /><path
       style="fill:#000000;fill-opacity:1;fill-rule:evenodd;stroke:#000000;stroke-width:1px;stroke-linecap:butt;stroke-linejoin:miter;stroke-opacity:1"
       d="m 23.764394,116.96076 3.886832,-0.53002 4.94688,0.7067 6.890296,1.94341 19.08082,4.77021 20.494214,3.71016 16.077358,1.59007 19.610836,1.41339 28.44456,0 27.20784,-1.59007 22.08428,-2.82679 19.43417,-3.88683 13.25057,-3.18014 4.24018,0 4.24018,2.12009 3.88684,4.06351 1.59006,4.06351 0,3.35681 -1.41339,4.94689 -2.82679,3.53348 -2.65011,1.94342 -16.96073,4.41685 -22.08428,4.24019 -23.49768,2.47344 -20.14087,1.23672 -24.91107,0.17667 -22.79098,-0.53002 -23.144322,-2.65012 -23.144328,-4.0635 -22.260957,-4.94688 -11.483826,-3.35681 -3.533486,-2.65012 -2.650113,-6.00693 0.176674,-5.4769 1.943417,-4.06351 3.710159,-3.53348 z"
       id="path4201-1"
       inkscape:connector-curvature="0" /><path
       style="fill:#000000;fill-opacity:1;fill-rule:evenodd;stroke:#000000;stroke-width:1px;stroke-linecap:butt;stroke-linejoin:miter;stroke-opacity:1"
       d="m 23.941074,153.70901 3.886831,-0.53002 4.94688,0.7067 6.890296,1.94341 19.08082,4.77021 20.494214,3.71016 16.077357,1.59007 19.610838,1.41339 28.44456,0 27.20784,-1.59007 22.08428,-2.82679 19.43417,-3.88683 13.25057,-3.18014 4.24018,0 4.24018,2.12009 3.88684,4.06351 1.59006,4.06351 0,3.35681 -1.41339,4.94689 -2.82679,3.53348 -2.65011,1.94342 -16.96073,4.41685 -22.08428,4.24019 -23.49768,2.47344 -20.14087,1.23672 -24.91107,0.17667 -22.79098,-0.53002 -23.144323,-2.65012 -23.144328,-4.0635 -22.260957,-4.94688 -11.483825,-3.35681 -3.533486,-2.65012 -2.650113,-6.00693 0.176674,-5.4769 1.943417,-4.06351 3.710159,-3.53348 z"
       id="path4201-1-2"
       inkscape:connector-curvature="0" /><path
       style="fill:#000000;fill-opacity:1;fill-rule:evenodd;stroke:#000000;stroke-width:1px;stroke-linecap:butt;stroke-linejoin:miter;stroke-opacity:1"
       d="m 23.941073,230.5623 3.88683,-0.53002 4.94688,0.7067 6.890296,1.94341 19.08082,4.77021 20.494214,3.71016 16.077361,1.59007 19.610826,1.41339 28.44456,0 27.20784,-1.59007 22.08428,-2.82679 19.43417,-3.88683 13.25057,-3.18014 4.24018,0 4.24018,2.12009 3.88684,4.06351 1.59006,4.06351 0,3.35681 -1.41339,4.94689 -2.82679,3.53348 -2.65011,1.94342 -16.96073,4.41685 -22.08428,4.24019 -23.49768,2.47344 -20.14087,1.23672 -24.91107,0.17667 -22.79098,-0.53002 -23.144315,-2.65012 -23.144328,-4.0635 -22.260957,-4.94688 -11.483824,-3.35681 -3.533486,-2.65012 -2.650113,-6.00693 0.176674,-5.4769 1.943417,-4.06351 3.710159,-3.53348 z"
       id="path4201-1-2-0"
       inkscape:connector-curvature="0" /><path
       style="fill:#000000;fill-opacity:1;fill-rule:evenodd;stroke:#000000;stroke-width:1px;stroke-linecap:butt;stroke-linejoin:miter;stroke-opacity:1"
       d="m 21.377586,191.5149 3.886833,-1.59007 4.593531,-0.35335 6.006925,1.59007 13.25057,3.88683 18.550797,3.88684 18.904146,2.82679 18.727472,1.59006 25.44109,0.7067 19.78752,-0.53002 21.20091,-1.59007 22.79098,-2.47344 16.43071,-3.35681 12.54387,-3.18014 4.94688,-1.41339 11.13048,0.7067 13.07389,3.88683 7.95035,4.41686 6.71362,5.65357 9.18706,10.60046 6.1836,12.72054 4.06351,15.01732 1.94341,12.19052 0.88337,13.25057 3.88684,8.30369 6.89029,8.30369 5.83025,4.94688 6.71363,4.77021 8.30369,4.94687 2.65011,1.94342 2.65011,4.41686 0.17668,6.71362 -1.23672,3.35681 -2.82679,3.53349 -3.53348,2.12009 -4.94688,0.35335 -5.47691,-0.88338 -10.07043,-6.18359 -8.65704,-6.1836 -8.12701,-7.42032 -6.1836,-7.06697 -7.597,-12.3672 -2.82678,-9.54041 -1.23672,-11.30715 -1.06005,-11.13048 -3.71016,-13.0739 -4.7702,-8.83371 -5.65358,-6.53695 -8.83371,-5.12355 -8.12702,-1.76674 -2.82679,0.35334 -9.71708,3.00347 -20.14087,4.0635 -14.48729,1.76675 -16.96073,1.59007 -19.08082,1.06004 -26.32446,0.53002 -18.02078,-0.88337 -27.737855,-2.65011 -14.487289,-2.29677 -17.667426,-3.53348 -16.077358,-4.41686 -6.006925,-1.94342 -4.416857,-3.88683 -1.766742,-6.71362 1.060045,-5.65358 z"
       id="path4248"
       inkscape:connector-curvature="0" /><path
       style="fill:#000000;fill-opacity:1;fill-rule:evenodd;stroke:#000000;stroke-width:1px;stroke-linecap:butt;stroke-linejoin:miter;stroke-opacity:1"
       d="m 8.6570388,269.60492 3.0034622,-1.76674 4.770205,0 7.243645,3.00346 14.840638,4.59353 16.077358,3.71016 14.840638,3.00346 20.31754,2.47344 22.084285,1.4134 22.6143,0.7067 21.02424,-1.59007 18.37412,-1.76675 21.55426,-3.35681 20.31754,-4.41685 13.95727,-4.06351 10.60046,-3.71016 c 0,0 1.94341,0 2.65011,0 0.7067,0 3.53348,1.59007 3.53348,1.59007 l 1.76675,3.00346 0.53002,6.71362 -0.17667,16.60738 -2.1201,5.30023 -3.35681,4.94688 -3.71016,2.47344 -13.07389,5.30023 -20.49422,4.59353 -22.08428,3.35681 -25.44109,1.94342 -18.37413,0.70669 -26.32446,-0.17667 -23.144328,-0.88337 -26.501139,-2.29677 -21.200912,-3.88683 -22.084282,-6.71362 -6.1836,-2.65012 -5.1235532,-6.53695 -2.6501139,-5.65357 -0.3533485,-3.00346 0.1766743,-18.5508 1.0600455,-3.18014 z"
       id="path4250"
       inkscape:connector-curvature="0" /></g></svg>